<svg xmlns="http://www.w3.org/2000/svg" viewBox="0 0 220 130" fill="none">
  <!-- Wheels -->
  <circle cx="58" cy="98" r="18" fill="#1F2937" stroke="#9CA3AF" stroke-width="4"/>
  <circle cx="58" cy="98" r="8" fill="#E5E7EB"/>
  <circle cx="162" cy="98" r="18" fill="#1F2937" stroke="#9CA3AF" stroke-width="4"/>
  <circle cx="162" cy="98" r="8" fill="#E5E7EB"/>
  
  <!-- Underbody Chassis -->
  <path d="M40 98 H180" stroke="#374151" stroke-width="4" stroke-linecap="round"/>
  
  <!-- Car Aerodynamic Body (Glossy Red / Hamrahii Theme) -->
  <path d="M25 82 C25 82 25 72 35 68 C45 64 62 62 82 50 C98 40 120 38 145 40 C165 42 178 52 188 64 C195 72 195 82 195 88 C195 92 190 94 185 94 H176 C174 86 166 80 156 80 C146 80 138 86 136 94 H84 C82 86 74 80 64 80 C54 80 46 86 44 94 H32 C27 94 25 90 25 82 Z" fill="#E10600"/>
  
  <!-- Sleek Body Character Line -->
  <path d="M35 72 Q110 68 185 68" stroke="#FFA033" stroke-width="2" stroke-linecap="round"/>
  
  <!-- Front and Rear Windshields & Windows -->
  <path d="M80 52 C95 44 115 42 135 43 L134 62 H74 L80 52 Z" fill="#E0F2FE" opacity="0.9"/>
  <path d="M138 43 C152 44 165 52 174 62 H138 V43 Z" fill="#E0F2FE" opacity="0.9"/>
  <path d="M72 55 L65 62 H71 L75 55 Z" fill="#E0F2FE" opacity="0.8"/>
  
  <!-- Window B-Pillar & Frame -->
  <rect x="133" y="42" width="4" height="20" fill="#1F2937"/>
  
  <!-- Side Door Handles -->
  <rect x="105" y="66" width="10" height="2.5" rx="1" fill="#FFFFFF"/>
  <rect x="145" y="66" width="10" height="2.5" rx="1" fill="#FFFFFF"/>
  
  <!-- Side Mirror -->
  <path d="M132 58 C136 55 142 56 142 60 C142 63 136 63 132 61 Z" fill="#1F2937"/>
  
  <!-- Front Headlight & Rear Taillight -->
  <path d="M186 67 Q193 70 193 76 H184 Z" fill="#FBBF24"/>
  <path d="M26 73 Q28 69 34 71 L32 77 H26 Z" fill="#DC2626"/>
  
  <!-- Front and Rear Bumpers -->
  <rect x="180" y="86" width="16" height="5" rx="2" fill="#374151"/>
  <rect x="24" y="86" width="14" height="5" rx="2" fill="#374151"/>
</svg>
