<svg xmlns="http://www.w3.org/2000/svg" viewBox="0 0 400 250" width="100%" height="100%">
  <defs>
    <linearGradient id="carBg" x1="0%" y1="0%" x2="100%" y2="100%">
      <stop offset="0%" stop-color="#F9FAFB"/>
      <stop offset="100%" stop-color="#E5E7EB"/>
    </linearGradient>
  </defs>
  <rect width="400" height="250" fill="url(#carBg)"/>
  <g transform="translate(100, 45)" fill="none">
    <circle cx="100" cy="80" r="65" fill="#FFFFFF" opacity="0.7"/>
    <path d="M25 90 L45 55 C50 48 58 44 68 44 L132 44 C142 44 150 48 155 55 L175 90 L185 95 C190 98 193 103 193 108 L193 125 C193 128 190 131 187 131 L173 131 C173 120 164 111 153 111 C142 111 133 120 133 131 L67 131 C67 120 58 111 47 111 C36 111 27 120 27 131 L13 131 C10 131 7 128 7 125 L7 108 C7 103 10 98 15 95 Z" fill="#9CA3AF"/>
    <path d="M52 57 L69 49 L131 49 L148 57 C151 61 154 68 156 82 L44 82 C46 68 49 61 52 57 Z" fill="#E5E7EB"/>
    <line x1="100" y1="49" x2="100" y2="82" stroke="#9CA3AF" stroke-width="2"/>
    <circle cx="47" cy="131" r="16" fill="#374151"/>
    <circle cx="47" cy="131" r="7" fill="#9CA3AF"/>
    <circle cx="153" cy="131" r="16" fill="#374151"/>
    <circle cx="153" cy="131" r="7" fill="#9CA3AF"/>
    <circle cx="20" cy="99" r="4" fill="#F59E0B"/>
    <circle cx="180" cy="99" r="4" fill="#EF4444"/>
  </g>
  <text x="200" y="205" text-anchor="middle" font-family="system-ui, -apple-system, sans-serif" font-size="14" font-weight="600" fill="#6B7280">Vehicle</text>
</svg>
